<svg width="12" height="8" viewBox="0 0 12 8" fill="none" xmlns="http://www.w3.org/2000/svg">
<path d="M6.00002 8C8.40002 8 10.2667 5.93333 11.0667 4.73333C11.4 4.26667 11.4 3.66667 11.0667 3.2C10.2667 2.06667 8.40002 0 6.00002 0C3.60002 0 1.73335 2.06667 0.93335 3.26667C0.600016 3.73333 0.600016 4.33333 0.93335 4.73333C1.73335 5.93333 3.60002 8 6.00002 8ZM6.00002 2C7.13335 2 8.00002 2.86667 8.00002 4C8.00002 5.13333 7.13335 6 6.00002 6C4.86668 6 4.00002 5.13333 4.00002 4C4.00002 2.86667 4.86668 2 6.00002 2Z" fill="#969AA0"/>
</svg>
